<svg width="117" height="117" viewBox="0 0 117 117" fill="none" xmlns="http://www.w3.org/2000/svg">
<path d="M58.5 117C42.8741 117 28.1833 110.915 17.1341 99.8659C6.08491 88.8167 0 74.1259 0 58.5C0 42.8741 6.08514 28.1835 17.1341 17.1341C28.1831 6.08469 42.8741 0 58.5 0C74.1259 0 88.8167 6.08491 99.8659 17.1341C110.915 28.1833 117 42.8741 117 58.5C117 74.1259 110.915 88.8165 99.8659 99.8659C88.8169 110.915 74.1259 117 58.5 117ZM58.5 7.3125C30.2751 7.3125 7.3125 30.2751 7.3125 58.5C7.3125 86.7249 30.2751 109.688 58.5 109.688C86.7249 109.688 109.688 86.7249 109.688 58.5C109.688 30.2751 86.7249 7.3125 58.5 7.3125Z" fill="url(#paint0_linear)"/>
<path d="M58.5 54.8438C53.4599 54.8438 49.3594 50.7433 49.3594 45.7031C49.3594 40.663 53.4599 36.5625 58.5 36.5625C63.5401 36.5625 67.6406 40.663 67.6406 45.7031C67.6406 47.7223 69.2775 49.3594 71.2969 49.3594C73.3163 49.3594 74.9531 47.7223 74.9531 45.7031C74.9531 37.8877 69.4738 31.3322 62.1562 29.6645V25.5938C62.1562 23.5746 60.5194 21.9375 58.5 21.9375C56.4806 21.9375 54.8438 23.5746 54.8438 25.5938V29.6645C47.5262 31.3322 42.0469 37.8877 42.0469 45.7031C42.0469 54.7754 49.4277 62.1562 58.5 62.1562C63.5401 62.1562 67.6406 66.2567 67.6406 71.2969C67.6406 76.337 63.5401 80.4375 58.5 80.4375C53.4599 80.4375 49.3594 76.337 49.3594 71.2969C49.3594 69.2777 47.7225 67.6406 45.7031 67.6406C43.6837 67.6406 42.0469 69.2777 42.0469 71.2969C42.0469 79.1123 47.5262 85.6678 54.8438 87.3355V91.4062C54.8438 93.4254 56.4806 95.0625 58.5 95.0625C60.5194 95.0625 62.1562 93.4254 62.1562 91.4062V87.3355C69.4738 85.6678 74.9531 79.1123 74.9531 71.2969C74.9531 62.2246 67.5723 54.8438 58.5 54.8438Z" fill="url(#paint1_linear)"/>
<defs>
<linearGradient id="paint0_linear" x1="0" y1="58.5" x2="117" y2="58.5" gradientUnits="userSpaceOnUse">
<stop stop-color="#283048"/>
<stop offset="1" stop-color="#859398"/>
</linearGradient>
<linearGradient id="paint1_linear" x1="42.0469" y1="58.5" x2="74.9531" y2="58.5" gradientUnits="userSpaceOnUse">
<stop stop-color="#283048"/>
<stop offset="1" stop-color="#859398"/>
</linearGradient>
</defs>
</svg>
